<svg width="87" height="68" viewBox="0 0 87 68" fill="none" xmlns="http://www.w3.org/2000/svg">
<ellipse cx="26.8703" cy="18.2141" rx="26.8703" ry="18.2141" transform="matrix(-1 0 0 1 86.5419 15.8889)" fill="#93AECA"/>
<ellipse cx="22.4271" cy="19.7642" rx="22.4271" ry="19.7642" transform="matrix(-1 0 0 1 64.9609 0)" fill="#93AECA"/>
<ellipse cx="22.4271" cy="21.5081" rx="22.4271" ry="21.5081" transform="matrix(-1 0 0 1 64.9609 24.8022)" fill="#93AECA"/>
<ellipse cx="27.2934" cy="19.5705" rx="27.2934" ry="19.5705" transform="matrix(-1 0 0 1 55.2285 15.8889)" fill="#93AECA"/>
<ellipse cx="11.2136" cy="10.2696" rx="11.2136" ry="10.2696" transform="matrix(-1 0 0 1 54.8053 23.6396)" fill="#FFD65C"/>
<line y1="-1" x2="14.7517" y2="-1" transform="matrix(-0.0573745 0.998353 0.99884 0.0481453 47.1885 5.03793)" stroke="#5966B1" stroke-width="2"/>
<line y1="-1" x2="14.8222" y2="-1" transform="matrix(0.114187 0.993459 0.995385 -0.0959576 40.8413 5.03793)" stroke="#5966B1" stroke-width="2"/>
<line y1="-1" x2="16.6353" y2="-1" transform="matrix(0.966609 0.256255 0.301384 -0.953503 11.6437 27.9024)" stroke="#5966B1" stroke-width="2"/>
<line y1="-1" x2="16.1218" y2="-1" transform="matrix(0.997396 -0.0721135 -0.0858851 -0.996305 11.6437 37.5908)" stroke="#5966B1" stroke-width="2"/>
<line y1="-1" x2="14.578" y2="-1" transform="matrix(0.290252 -0.95695 -0.969132 -0.246543 37.456 60.4553)" stroke="#5966B1" stroke-width="2"/>
<line y1="-1" x2="14.0096" y2="-1" transform="matrix(-0.0906185 -0.995886 -0.9971 0.0760973 46.3423 60.4553)" stroke="#5966B1" stroke-width="2"/>
<line y1="-1" x2="16.2031" y2="-1" transform="matrix(-0.99176 0.128108 0.152214 0.988348 78.5018 30.2276)" stroke="#5966B1" stroke-width="2"/>
<line y1="-1" x2="14.5424" y2="-1" transform="matrix(-0.988626 -0.150397 -0.178466 0.983946 76.8093 39.5284)" stroke="#5966B1" stroke-width="2"/>
</svg>
