<svg width="110" height="450" viewBox="0 0 110 450" fill="none" xmlns="http://www.w3.org/2000/svg">
<path d="M6.0421 233.724C9.20701 236.564 12.8035 239.049 13.8105 239.049C16.9754 239.049 17.2632 241.533 14.9614 249.697C12.6596 257.684 13.2351 268.51 16.2561 275.254C17.5509 278.449 18.1263 277.562 21.8667 268.155C30.0667 248.1 39.2737 240.113 54.6667 240.113C68.4772 240.113 76.1018 246.325 81.2807 261.234C85.1649 272.592 84.7333 284.838 79.986 294.6C72.6491 310.04 59.9895 312.17 51.214 299.214C46.7544 292.647 46.6105 289.63 50.3509 281.999C52.6526 277.384 54.0912 276.319 57.9754 276.319C60.5649 276.319 64.0175 277.562 65.6 278.981C69.1965 281.999 70.4912 280.934 70.4912 275.077C70.4912 268.865 68.0456 264.251 63.0105 261.056C51.3579 253.602 34.5263 270.285 34.5263 289.098C34.6702 297.262 39.2737 309.153 45.1719 316.252L50.207 322.286L41.7193 328.676C32.5123 335.597 25.4632 346.601 22.7298 358.67C21.8667 362.752 21.1474 379.08 21.0035 395.23C20.8596 421.142 20.4281 425.934 17.407 436.583C15.6807 443.327 14.5298 449.184 14.9614 449.716C16.2561 451.491 25.8947 444.569 29.4912 439.245L32.9439 434.276L37.2596 439.6C39.5614 442.617 42.1509 444.924 43.014 444.924C44.3088 444.924 47.4737 434.276 47.4737 429.661C47.4737 428.064 49.2 428.064 53.5158 429.306C68.6211 433.388 87.7544 423.982 96.2421 408.186C102.572 396.295 103.004 388.663 98.5439 366.834C94.2281 346.778 94.3719 336.13 98.5439 326.013C99.8386 322.819 100.558 319.979 100.126 319.447C97.393 316.075 85.0211 327.966 78.8351 340.212C75.0947 347.488 74.0877 348.198 66.0316 350.328C56.1053 352.813 52.7965 355.652 48.6246 365.769C44.5965 375.53 45.7474 384.936 51.9333 392.745C56.1053 398.07 57.5439 398.78 64.1614 398.78C70.779 398.78 72.0737 398.07 75.3825 393.278C79.4105 387.421 80.2737 378.192 77.5404 371.803C75.0947 366.301 76.9649 366.124 82 371.625C95.0912 386.001 83.2947 412.978 64.1614 412.978C39.2737 412.801 26.3263 379.79 40.7123 353.168C44.5965 346.068 46.8982 343.761 56.1053 338.969C76.8211 328.143 80.8491 325.303 86.3158 317.494C95.5228 304.716 98.5439 295.309 98.4 279.869C98.2561 270.995 97.2491 263.008 95.0912 256.087C93.5088 250.23 92.0702 244.905 92.0702 244.196C92.0702 243.486 94.3719 241.356 97.1053 239.759C102.284 236.741 109.333 227.867 109.333 224.495C109.333 221.656 98.9754 210.652 95.379 209.587C91.3509 208.167 91.207 206.038 95.2351 194.324C97.5369 187.402 98.4 181.013 98.4 170.719C98.4 158.296 97.9684 155.278 94.2281 146.759C87.0351 130.431 80.2737 123.51 63.1544 114.991C42.8702 105.052 36.5404 96.5329 34.9579 76.4778C33.807 63.6993 39.1298 50.0334 47.9053 42.7568C52.9404 38.4973 55.386 37.6099 63.4421 37.6099C71.6421 37.6099 73.6561 38.3198 78.1158 42.5793C87.4667 51.2758 90.3439 63.6993 85.4526 73.8156C81.4246 82.1571 74.0877 85.8842 77.5404 77.8976C80.5614 70.9759 79.4105 61.747 74.9509 56.0677C71.4983 51.9857 69.4842 50.9208 64.1614 50.9208C58.6947 50.9208 56.8246 51.8082 52.6526 57.1326C39.1298 73.8156 49.4877 100.615 69.4842 100.615C73.9439 100.615 74.807 101.68 79.2667 110.731C84.1579 120.848 96.386 133.804 99.1193 131.851C99.9825 131.141 99.407 126.704 97.6807 121.025C94.0842 108.424 94.2281 103.1 98.5439 83.222C100.558 74.1706 102.14 64.9416 102.14 62.9894C102.14 48.9685 91.3509 31.0431 78.979 24.2989C72.793 21.1043 69.4842 20.5719 59.5579 21.1043L47.7614 21.6368L47.0421 14.7151C45.8912 4.06632 44.0211 3.17893 38.2667 10.8105C33.2316 17.1998 33.0877 17.1998 31.3614 13.6502C29.0596 9.21322 16.1123 -1.43553 14.8175 0.161783C14.2421 0.69422 15.393 6.72851 17.2632 13.2952C20.4281 23.944 20.8596 28.2035 21.0035 56.4226C21.1474 86.4166 21.2912 88.0139 25.1754 98.6627C29.3474 110.199 34.6702 116.943 44.4526 123.865L50.3509 127.947L44.7404 135.046C34.3825 148.002 32.0807 160.78 37.5474 174.624C43.5895 190.064 57.1123 195.744 66.0316 186.515C69.4842 183.143 70.4912 180.481 70.4912 175.866C70.4912 169.122 69.1965 168.412 64.0175 172.671C59.1263 176.576 53.8035 174.624 50.3509 167.525C46.3228 159.538 46.7544 155.988 52.6526 149.244C56.9684 144.097 58.8386 143.21 64.593 143.21C70.3474 143.21 72.0737 144.097 76.1018 149.244C85.3088 160.958 86.3158 178.706 78.6912 195.389C72.793 208.345 55.6737 214.379 42.5825 208.167C34.9579 204.618 25.3193 192.372 21.4351 181.19C17.2632 169.832 15.8246 170.719 13.8105 185.805C13.0912 191.484 14.2421 200.536 16.4 207.102C17.1193 209.055 15.9684 210.474 12.6596 212.072C7.04912 214.557 -5.36442e-06 222.188 -5.36442e-06 225.738C-5.36442e-06 227.158 2.73333 230.707 6.0421 233.724Z" fill="#FFD65C"/>
<path d="M14.6737 323.351C16.8316 328.143 18.7017 329.563 23.1614 329.563C28.9158 329.563 33.5193 324.061 33.5193 317.494C33.5193 305.603 22.5859 300.279 16.1123 308.798C12.6596 313.412 12.228 318.027 14.6737 323.351Z" fill="#FFD65C"/>
<path d="M16.5439 142.323C20.4281 147.292 22.586 147.647 28.0526 144.63C37.2596 139.483 33.807 120.138 23.4491 120.138C18.8456 120.138 12.9474 127.592 12.9474 133.449C12.9474 135.933 14.5298 140.015 16.5439 142.323Z" fill="#FFD65C"/>
</svg>
