<svg width="71" height="62" viewBox="0 0 71 62" fill="none" xmlns="http://www.w3.org/2000/svg">
<path d="M11.6322 7.24045C12.8608 6.01188 15.225 5.74491 18.4395 6.85928C21.5818 7.94864 25.209 10.2673 28.5309 13.5892C31.8526 16.911 34.1708 20.5378 35.2602 23.68C36.3746 26.8945 36.1076 29.2587 34.879 30.4873C33.6504 31.7158 31.2869 31.9821 28.0724 30.8678C24.9302 29.7784 21.3028 27.461 17.981 24.1392C14.659 20.8173 12.3411 17.1894 11.2517 14.047C10.1375 10.8327 10.4037 8.46903 11.6322 7.24045Z" fill="#FF8BB4" stroke="#FF6875" stroke-width="2"/>
<path d="M35.9737 31.9273C37.2023 30.6988 39.5665 30.4318 42.781 31.5462C45.9233 32.6355 49.5506 34.9542 52.8725 38.2761C56.1942 41.5979 58.5124 45.2247 59.6017 48.3669C60.7161 51.5814 60.4491 53.9456 59.2206 55.1742C57.992 56.4027 55.6284 56.669 52.414 55.5547C49.2717 54.4653 45.6444 52.1479 42.3225 48.8261C39.0006 45.5042 36.6826 41.8763 35.5933 38.7339C34.479 35.5196 34.7453 33.1559 35.9737 31.9273Z" fill="#FF8BB4" stroke="#FF6875" stroke-width="2"/>
<path d="M59.2209 7.23748C60.4495 8.46605 60.7164 10.8303 59.6021 14.0448C58.5127 17.1871 56.194 20.8143 52.8721 24.1362C49.5504 27.4579 45.9235 29.7761 42.7814 30.8655C39.5669 31.9798 37.2027 31.7129 35.9741 30.4843C34.7456 29.2557 34.4793 26.8921 35.5936 23.6777C36.6829 20.5355 39.0004 16.9081 42.3222 13.5863C45.6441 10.2643 49.272 7.94634 52.4143 6.857C55.6287 5.74274 57.9923 6.00902 59.2209 7.23748Z" fill="#FF8BB4" stroke="#FF6875" stroke-width="2"/>
<path d="M36.7758 31.9271C38.0044 33.1557 38.2714 35.5199 37.157 38.7344C36.0677 41.8767 33.749 45.504 30.4271 48.8259C27.1053 52.1475 23.4785 54.4657 20.3363 55.5551C17.1218 56.6695 14.7576 56.4025 13.529 55.1739C12.3005 53.9453 12.0342 51.5818 13.1485 48.3673C14.2379 45.2251 16.5553 41.5977 19.8771 38.2759C23.199 34.9539 26.8269 32.636 29.9693 31.5466C33.1836 30.4324 35.5473 30.6987 36.7758 31.9271Z" fill="#FF8BB4" stroke="#FF6875" stroke-width="2"/>
<path d="M35.5032 1.54828C37.2406 1.54828 39.1012 3.03125 40.5862 6.09222C42.0378 9.08446 42.9631 13.2889 42.9631 17.9868C42.9631 22.6844 42.0377 26.8882 40.5862 29.8803C39.1012 32.9413 37.2406 34.4243 35.5032 34.4243C33.7658 34.4242 31.9061 32.9412 30.4211 29.8803C28.9695 26.8881 28.0433 22.6845 28.0432 17.9868C28.0432 13.2888 28.9695 9.08447 30.4211 6.09222C31.9061 3.03144 33.7658 1.54835 35.5032 1.54828Z" fill="#FF8BB4" stroke="#FF6875" stroke-width="2"/>
<path d="M35.5032 27.7918C37.2406 27.7918 39.1012 29.2748 40.5862 32.3358C42.0378 35.328 42.9631 39.5324 42.9631 44.2303C42.9631 48.9279 42.0377 53.1317 40.5862 56.1238C39.1012 59.1848 37.2406 60.6678 35.5032 60.6678C33.7658 60.6677 31.9061 59.1847 30.4211 56.1238C28.9695 53.1317 28.0433 48.928 28.0432 44.2303C28.0432 39.5324 28.9695 35.328 30.4211 32.3358C31.9061 29.275 33.7658 27.7919 35.5032 27.7918Z" fill="#FF8BB4" stroke="#FF6875" stroke-width="2"/>
<path d="M36.5032 30.9357C36.5032 29.1983 37.9861 27.3378 41.0471 25.8527C44.0394 24.4011 48.2438 23.4758 52.9417 23.4758C57.6393 23.4758 61.8431 24.4012 64.8352 25.8527C67.8962 27.3378 69.3792 29.1983 69.3792 30.9357C69.3791 32.6732 67.8961 34.5328 64.8352 36.0178C61.843 37.4694 57.6394 38.3956 52.9417 38.3957C48.2437 38.3957 44.0394 37.4694 41.0471 36.0178C37.9863 34.5328 36.5033 32.6731 36.5032 30.9357Z" fill="#FF8BB4" stroke="#FF6875" stroke-width="2"/>
<path d="M1.62695 30.9357C1.62695 29.1983 3.10992 27.3378 6.1709 25.8527C9.16314 24.4011 13.3676 23.4758 18.0654 23.4758C22.763 23.4758 26.9668 24.4012 29.959 25.8527C33.02 27.3378 34.5029 29.1983 34.5029 30.9357C34.5029 32.6732 33.0199 34.5328 29.959 36.0178C26.9668 37.4694 22.7632 38.3956 18.0654 38.3957C13.3675 38.3957 9.16314 37.4694 6.1709 36.0178C3.11012 34.5328 1.62703 32.6731 1.62695 30.9357Z" fill="#FF8BB4" stroke="#FF6875" stroke-width="2"/>
<ellipse cx="35.5034" cy="30.9356" rx="8.46009" ry="8.4601" fill="#FFD65C"/>
</svg>
